<svg xmlns="http://www.w3.org/2000/svg" xmlns:xlink="http://www.w3.org/1999/xlink" viewBox="0,0,256,256" width="50px" height="50px" fill-rule="nonzero"><g fill="#ffffff" fill-rule="nonzero" stroke="none" stroke-width="1" stroke-linecap="butt" stroke-linejoin="miter" stroke-miterlimit="10" stroke-dasharray="" stroke-dashoffset="0" font-family="none" font-weight="none" font-size="none" text-anchor="none" style="mix-blend-mode: normal"><g transform="scale(5.12,5.12)"><path d="M14,4.99023c-4.97,0 -9,4.03 -9,9v22c0,4.97 4.03,9 9,9h16.21094c-0.63,-1.22 -1.03016,-2.57023 -1.16016,-3.99023h-1.52148c-0.81,0 -1.24922,-0.97031 -0.69922,-1.57031c0.73,-0.8 1.61031,-1.59961 2.57031,-2.34961c1.28,-4.65 5.55961,-8.08008 10.59961,-8.08008c1.8,0 3.5,0.44094 5,1.21094v-16.2207c0,-4.97 -4.03,-9 -9,-9zM14.65039,9c0.22,0 0.40976,0.12055 0.50976,0.31055c2.93,6.09 7.95898,19.98914 7.95898,28.86914c5.63,-12.08 5.7618,-22.77891 5.0918,-28.12891c-0.07,-0.56 0.36969,-1.05078 0.92969,-1.05078h6.20898c3.12,0 5.65039,2.53039 5.65039,5.65039v5.7793c0,0.4 -0.26086,0.74086 -0.63086,0.88086c-2.81,1.08 -14.1293,8.28945 -15.2793,19.68945h-3.00977c-1.16,-10.58 -8.17078,-20.2507 -12.55078,-22.2207c-0.33,-0.14 -0.5293,-0.47984 -0.5293,-0.83984v-3.28906c0,-3.12 2.53039,-5.65039 5.65039,-5.65039zM40,31c-4.95,0 -9,4.05 -9,9c0,4.95 4.05,9 9,9c4.95,0 9,-4.05 9,-9c0,-4.95 -4.05,-9 -9,-9zM10.03906,33.42969c3.51,0.42 7.76055,3.23 10.31055,6c0.55,0.6 0.11102,1.57031 -0.70898,1.57031h-4.99023c-3.12,0 -5.65039,-2.53039 -5.65039,-5.65039v-0.98047c0,-0.56 0.48906,-1.00945 1.03906,-0.93945zM44.61914,35.00391c0.12375,0 0.37109,0.05586 0.37109,0.50586v3.65039v3.34961c0,0.55 -0.69023,1.5 -2.24023,1.5c-1.55,0 -1.75,-1 -1.75,-1.5c0,-0.75 0.8,-1.5 2,-1.5c1.1,0 1,-0.3 1,-0.75v-2.20898c0,-0.35 -0.00039,-0.45156 -0.40039,-0.35156c-0.65,0.15 -4.25039,1.05078 -4.40039,1.05078c-0.15,0.05 -0.19922,0.14922 -0.19922,0.44922v4.29102c0,0.55 -0.7,1.5 -2.25,1.5c-1.55,0 -1.75,-1 -1.75,-1.5c0,-0.75 0.8,-1.5 2,-1.5c1.1,0 1,-0.3 1,-0.75v-4.48047c0,-0.25 0.09961,-0.39922 0.34961,-0.44922c0.4,-0.1 6.20117,-1.30078 6.20117,-1.30078c0,0 0.02711,-0.00586 0.06836,-0.00586z"></path></g></g></svg>