<svg width="512" height="512" viewBox="0 0 512 512" fill="none" xmlns="http://www.w3.org/2000/svg">
<g id="Type=Default">
<path id="Vector" d="M256 507.607C397.385 507.607 512 394.87 512 255.803C512 116.736 397.385 4 256 4C114.615 4 0 116.736 0 255.803C0 394.87 114.615 507.607 256 507.607Z" fill="#FF0000"/>
<path id="Vector (Stroke)" fill-rule="evenodd" clip-rule="evenodd" d="M255.996 117.312C178.186 117.312 115.406 179.48 115.406 255.804C115.406 332.127 178.186 394.295 255.996 394.295C333.806 394.295 396.586 332.127 396.586 255.804C396.586 179.48 333.806 117.312 255.996 117.312ZM90.2253 255.804C90.2253 165.247 164.608 92.1314 255.996 92.1314C347.384 92.1314 421.766 165.247 421.766 255.804C421.766 346.36 347.384 419.476 255.996 419.476C164.608 419.476 90.2253 346.36 90.2253 255.804Z" fill="white"/>
<path id="Vector_2" d="M203.545 329.246L337.84 255.803L203.545 182.361V329.246Z" fill="white"/>
</g>
</svg>
